<svg xmlns="http://www.w3.org/2000/svg" viewBox="0 0 1440 1599" fill="none">
  <g clip-path="url(#gradient-bg-promo-a)" opacity=".5">
    <g filter="url(#gradient-bg-promo-b)" opacity=".3">
      <path fill="#F13870" d="M1795 89.772c0 628.926-197.43 391.061-510.02 391.061C972.385 480.833 663 718.698 663 89.772 663-539.155 916.407-1049 1229-1049c312.59 0 566 509.845 566 1138.772Z"/>
    </g>
    <g filter="url(#gradient-bg-promo-c)" opacity=".5">
      <path fill="#164ED0" d="M640.224 580.276c0 514.664 432.936-57.602 0-57.602C207.287 522.674-639 850.448-639 335.785S306.352-1199 739.289-1199c432.941 0-99.065 1264.613-99.065 1779.276Z"/>
    </g>
  </g>
  <defs>
    <filter id="gradient-bg-promo-b" width="1480" height="1921.95" x="489" y="-1223" color-interpolation-filters="sRGB" filterUnits="userSpaceOnUse">
      <feFlood flood-opacity="0" result="BackgroundImageFix"/>
      <feBlend in="SourceGraphic" in2="BackgroundImageFix" result="shape"/>
      <feGaussianBlur result="effect1_foregroundBlur_12525_6594" stdDeviation="87"/>
    </filter>
    <filter id="gradient-bg-promo-c" width="3156" height="3601.98" x="-1443" y="-2003" color-interpolation-filters="sRGB" filterUnits="userSpaceOnUse">
      <feFlood flood-opacity="0" result="BackgroundImageFix"/>
      <feBlend in="SourceGraphic" in2="BackgroundImageFix" result="shape"/>
      <feGaussianBlur result="effect1_foregroundBlur_12525_6594" stdDeviation="402"/>
    </filter>
    <clipPath id="gradient-bg-promo-a">
      <path fill="#fff" d="M0 0h1440v1599H0z"/>
    </clipPath>
  </defs>
</svg>
