<svg width="24" height="24" viewBox="0 0 24 24" fill="none" xmlns="http://www.w3.org/2000/svg">
<path d="M20.4002 1.2002H3.6002C2.2802 1.2002 1.2002 2.2802 1.2002 3.6002V20.4002C1.2002 21.7214 2.2802 22.8002 3.6002 22.8002H12.0002V14.4002H9.6002V11.4302H12.0002V8.9702C12.0002 6.3734 13.4546 4.5494 16.5194 4.5494L18.683 4.5518V7.6778H17.2466C16.0538 7.6778 15.6002 8.573 15.6002 9.4034V11.4314H18.6818L18.0002 14.4002H15.6002V22.8002H20.4002C21.7202 22.8002 22.8002 21.7214 22.8002 20.4002V3.6002C22.8002 2.2802 21.7202 1.2002 20.4002 1.2002Z" fill="white"/>
</svg>
