<svg width="40" height="40" viewBox="0 0 40 40" fill="none" xmlns="http://www.w3.org/2000/svg">
<path d="M37.4821 15.5C36.8036 14.8036 36.1071 14.0714 35.8393 13.4464C35.5714 12.8214 35.5893 11.8929 35.5714 10.9464C35.5536 9.21429 35.5179 7.23214 34.1429 5.85714C32.7679 4.48214 30.7857 4.44643 29.0536 4.42857C28.1071 4.41071 27.1429 4.39286 26.5536 4.16071C25.9643 3.92857 25.1964 3.19643 24.5 2.51786C23.2679 1.33929 21.8571 0 20 0C18.1429 0 16.7321 1.33929 15.5 2.51786C14.8036 3.19643 14.0714 3.89286 13.4464 4.16071C12.8214 4.42857 11.8929 4.41071 10.9464 4.42857C9.21429 4.44643 7.23214 4.48214 5.85714 5.85714C4.48214 7.23214 4.44643 9.21429 4.42857 10.9464C4.41071 11.8929 4.39286 12.8571 4.16071 13.4464C3.92857 14.0357 3.19643 14.8036 2.51786 15.5C1.33929 16.7321 0 18.1429 0 20C0 21.8571 1.33929 23.2679 2.51786 24.5C3.19643 25.1964 3.89286 25.9286 4.16071 26.5536C4.42857 27.1786 4.41071 28.1071 4.42857 29.0536C4.44643 30.7857 4.48214 32.7679 5.85714 34.1429C7.23214 35.5179 9.21429 35.5536 10.9464 35.5714C11.8929 35.5893 12.8571 35.6071 13.4464 35.8393C14.0357 36.0714 14.8036 36.8036 15.5 37.4821C16.7321 38.6607 18.1429 40 20 40C21.8571 40 23.2679 38.6607 24.5 37.4821C25.1964 36.8036 25.9286 36.1071 26.5536 35.8393C27.1786 35.5714 28.1071 35.5893 29.0536 35.5714C30.7857 35.5536 32.7679 35.5179 34.1429 34.1429C35.5179 32.7679 35.5536 30.7857 35.5714 29.0536C35.5893 28.1071 35.6071 27.1429 35.8393 26.5536C36.0714 25.9643 36.8036 25.1964 37.4821 24.5C38.6607 23.2679 40 21.8571 40 20C40 18.1429 38.6607 16.7321 37.4821 15.5ZM28.8393 16.75L18.375 26.75C18.1045 27.0045 17.7464 27.1452 17.375 27.1429C17.0091 27.1442 16.6569 27.0034 16.3929 26.75L11.1607 21.75C11.0156 21.6234 10.8976 21.4687 10.8137 21.2954C10.7299 21.122 10.682 20.9334 10.6729 20.741C10.6638 20.5487 10.6937 20.3564 10.7608 20.1759C10.8279 19.9954 10.9308 19.8303 11.0633 19.6905C11.1958 19.5508 11.3552 19.4393 11.5319 19.3627C11.7086 19.2862 11.899 19.2461 12.0916 19.245C12.2842 19.2439 12.475 19.2817 12.6526 19.3562C12.8302 19.4307 12.9909 19.5404 13.125 19.6786L17.375 23.7321L26.875 14.6786C27.1528 14.4362 27.5135 14.3106 27.8817 14.3281C28.2499 14.3455 28.5971 14.5046 28.8508 14.7721C29.1044 15.0395 29.2449 15.3947 29.2427 15.7633C29.2406 16.132 29.096 16.4855 28.8393 16.75Z" fill="url(#paint0_linear_14_204)"/>
<defs>
<linearGradient id="paint0_linear_14_204" x1="-1.54717" y1="31.6" x2="24.7945" y2="31.4754" gradientUnits="userSpaceOnUse">
<stop stop-color="#FB89DC"/>
<stop offset="0.499259" stop-color="#4478DC"/>
<stop offset="1" stop-color="#B300DC"/>
</linearGradient>
</defs>
</svg>
