<svg xmlns="http://www.w3.org/2000/svg" width="280" height="310" fill="none">
  <g opacity=".6">
    <mask id="a" width="280" height="310" x="0" y="0" maskUnits="userSpaceOnUse" style="mask-type:alpha">
      <path fill="#F90" d="M0 0h280v310H0z"/>
    </mask>
    <g stroke="#E9E9E9" stroke-miterlimit="10" stroke-width="1.5" mask="url(#a)">
      <path d="M106.02-227.619C44.035-218.925 4.683-131.687 5.475-66.146 6.395 9.383 60.41 37.849 43.982 95.327c-14.975 52.452-67.644 55.543-75.944 94.104-7.627 35.438 24.216 91.515 181.837 183.929"/>
      <path d="M156.86 368.955C1.517 277.664-31.556 221.554-25.341 185.613c4.642-26.638 30.217-36.903 50.208-57.745a88.347 88.347 0 0 0 21.96-37.235C60.368 44.65 30.397 17.243 17.54-31.894a165.288 165.288 0 0 1-5.455-38.348C10.3-136.05 44.41-222.315 104.138-232.356"/>
      <path d="M163.823 364.538C10.77 274.37-23.523 218.26-18.709 181.892c3.54-26.734 27.896-37.61 46.87-58.494a95.6 95.6 0 0 0 21.511-37.353c13.766-45.32-13.231-72.716-25.49-122.025a187.087 187.087 0 0 1-5.476-38.261c-2.577-66.087 26.078-151.368 83.549-162.757"/>
      <path d="M170.765 360.132C20.032 271.108-15.469 214.967-12.089 178.127c2.46-26.851 25.575-38.293 43.545-59.253a104.148 104.148 0 0 0 21.061-37.427c13.99-44.7-10.044-71.99-21.692-121.522a212.981 212.981 0 0 1-5.53-38.208c-3.487-66.354 19.83-150.652 75.045-163.388"/>
      <path d="M177.761 355.727C29.285 267.825-7.404 211.695-5.457 174.353c1.39-26.937 23.265-39 40.197-60.023a114.639 114.639 0 0 0 20.622-37.556C69.578 32.694 48.517 5.48 37.468-44.3a250.168 250.168 0 0 1-5.54-38.07C27.53-149 45.522-232.313 98.479-246.407"/>
      <path d="M184.735 351.364C38.537 264.553-.376 208.39 1.165 170.578c1.069-26.991 20.89-39.705 36.87-60.772a128.126 128.126 0 0 0 20.173-37.673C72.648 28.674 54.56 1.555 44.12-48.395a298.195 298.195 0 0 1-5.584-37.973c-5.348-66.909 7.349-149.239 58.06-164.681"/>
      <path d="M191.709 346.904C47.8 261.27 8.802 205.15 7.732 166.814c-.62-27.076 18.633-40.443 33.608-61.542a145.34 145.34 0 0 0 19.724-37.78c14.664-42.839-.46-69.894-10.29-120.025a373.232 373.232 0 0 1-5.605-37.877c-6.257-67.188 1.07-148.534 49.556-165.323"/>
      <path d="M198.683 342.499c-141.63-84.48-181.838-140.61-184.266-179.46-1.733-27.14 16.162-41.192 30.207-62.301a167.87 167.87 0 0 0 19.253-37.887c14.9-42.208 2.76-69.198-6.493-119.522-2.139-11.71-4.193-24.21-5.637-37.78-7.198-67.477-5.123-147.829 41.085-165.965"/>
      <path d="M205.657 338.093C66.316 254.715 25.007 198.627 21.017 159.275c-2.75-27.215 13.787-41.962 26.88-63.092A201.025 201.025 0 0 0 66.71 58.178c15.125-41.588 5.937-68.493-2.684-119.02-2.011-11.763-4.044-24.231-5.67-37.695-8.129-67.669-11.36-147.079 32.582-166.563"/>
      <path d="M212.62 333.676C75.568 251.432 33.146 195.366 27.67 155.5c-3.755-27.28 11.38-42.775 23.532-63.82a250.977 250.977 0 0 0 18.376-38.1c15.35-40.979 9.135-67.809 1.07-118.528-1.883-11.763-3.915-24.243-5.712-37.599-9.114-68.022-17.628-146.406 24.066-167.237"/>
      <path d="M219.594 329.271C84.82 248.16 41.308 192.104 34.291 151.757c-4.75-27.343 8.963-43.544 20.216-64.59A337.3 337.3 0 0 0 72.423 48.96c15.574-40.347 12.322-67.102 4.92-118.025-1.732-11.817-3.775-24.264-5.733-37.503-10.097-68.3-23.874-145.689 15.563-167.889"/>
      <path d="M226.568 324.865C94.083 244.877 49.468 188.821 40.912 147.961c-5.734-27.418 6.535-44.336 16.89-65.338 5.946-12.073 11.947-24.435 17.466-38.326C91.056 4.572 90.788-22.11 83.986-73.225c-1.594-11.849-3.648-24.275-5.766-37.428-11.081-68.578-30.12-144.983 7.07-168.52"/>
      <path d="M233.542 320.459C103.378 241.594 57.652 185.613 47.543 144.197c-6.728-27.494 4.076-45.16 13.553-66.108 5.594-12.362 11.423-24.756 17.017-38.433C94.158.55 96.821-26.045 90.628-77.364c-1.444-11.88-3.508-24.296-5.797-37.31-12.087-68.845-36.368-144.278-1.423-169.162"/>
      <path d="M240.516 316.075C112.598 238.322 65.845 182.287 54.176 140.433 46.483 112.865 55.778 94.45 64.4 73.555 69.62 60.894 75.29 48.48 80.969 35.058c16.238-38.497 21.907-64.995 16.323-116.56-1.316-11.923-3.39-24.306-5.83-37.214-13.113-69.123-42.635-143.572-9.936-169.803"/>
      <path d="M247.479 311.637C121.851 235.039 74.059 179.036 60.796 136.658c-8.664-27.654-.888-46.806 6.889-67.627 4.834-12.96 10.364-25.418 16.119-38.657 16.462-37.855 25.093-64.3 20.12-116.015a367.434 367.434 0 0 0-5.894-37.128c-14.087-69.38-48.818-142.888-18.398-170.434"/>
      <path d="M254.453 307.231C131.114 231.756 82.243 175.7 67.417 132.926c-9.627-27.74-3.39-47.64 3.562-68.44 4.439-13.26 9.83-25.739 15.67-38.753 16.686-37.246 28.292-63.605 23.917-115.49a291.267 291.267 0 0 0-5.894-37.033c-15.199-69.668-55.096-142.171-26.965-171.108"/>
      <path d="M261.428 302.825C140.366 228.484 90.5 172.364 74.038 129.119c-10.567-27.804-5.915-48.464.225-69.156 4.033-13.56 9.317-26.06 15.232-38.86 16.911-36.615 31.479-62.91 27.714-115.02a242.127 242.127 0 0 0-5.926-36.936C95.078-200.757 49.95-272.297 75.868-302.581"/>
      <path d="M268.401 298.409C149.672 225.2 98.725 169.112 80.67 125.354c-11.53-27.92-8.472-49.297-3.113-69.914 3.605-13.902 8.782-26.392 14.783-38.978 17.114-35.995 34.677-62.205 31.522-114.518a208.155 208.155 0 0 0-5.958-36.84c-17.264-70.16-67.59-140.738-43.92-172.369"/>
      <path d="M275.375 294.003C158.881 221.971 106.972 165.798 87.334 121.58c-12.472-28.018-11.028-50.11-6.418-70.674 3.209-14.17 8.257-26.734 14.333-39.085 17.36-35.375 37.876-61.51 35.298-114.015a182.205 182.205 0 0 0-5.99-36.743c-18.334-70.418-73.805-140.086-52.412-173.012"/>
      <path d="M282.349 289.597c-114.204-70.952-167.13-127.125-188.426-171.781-13.424-28.135-13.617-50.934-9.777-71.444C86.863 31.903 91.88 19.328 98.052 7.18c17.584-34.744 41.063-60.804 39.116-113.513a161.37 161.37 0 0 0-6.022-36.647c-19.435-70.663-80.094-139.326-60.926-173.653"/>
      <path d="M289.313 285.181C177.397 215.362 123.52 159.146 100.544 114.083 86.189 85.842 84.339 62.348 87.441 41.891c2.236-14.768 7.199-27.376 13.424-39.299 17.82-34.134 44.272-60.12 42.924-113.02a145.729 145.729 0 0 0-6.054-36.562c-20.622-70.856-86.309-138.61-69.408-174.305"/>
      <path d="M296.287 280.786C118.353 169.316 84.531 90.526 90.735 37.315c6.77-58.088 60.691-80.256 59.707-151.924C149.276-198.682 49.308-282.702 66.444-326"/>
    </g>
  </g>
</svg>
