<svg width="92" height="92" viewBox="0 0 92 92" fill="none" xmlns="http://www.w3.org/2000/svg">
<path d="M43.3604 87.8672C43.0166 87.8667 42.6843 87.743 42.4238 87.5185C42.1634 87.294 41.9921 86.9836 41.9409 86.6435C41.9211 86.5106 39.7936 73.1256 29.8012 62.9248C29.5449 62.6504 29.4061 62.2867 29.4144 61.9114C29.4228 61.536 29.5777 61.1788 29.8459 60.9162C30.1142 60.6535 30.4746 60.5063 30.8501 60.5059C31.2255 60.5055 31.5862 60.652 31.855 60.9141C42.5177 71.8049 44.6973 85.6373 44.7925 86.2195C44.8234 86.4243 44.8095 86.6334 44.752 86.8324C44.6945 87.0314 44.5947 87.2156 44.4594 87.3724C44.324 87.5292 44.1564 87.655 43.968 87.741C43.7796 87.827 43.5748 87.8713 43.3676 87.8708L43.3604 87.8672Z" fill="#164ED0"/>
<path d="M28.3692 67.8482C28.1118 67.8476 27.8593 67.778 27.6381 67.6465C27.4168 67.515 27.2349 67.3265 27.1114 67.1007L24.8563 62.9679L20.7235 60.711C20.4988 60.5867 20.3115 60.4045 20.1811 60.1833C20.0507 59.9621 19.9819 59.71 19.9819 59.4532C19.9819 59.1964 20.0507 58.9443 20.1811 58.7231C20.3115 58.5019 20.4988 58.3197 20.7235 58.1954L24.8563 55.9385L27.1114 51.8057C27.2357 51.581 27.4179 51.3938 27.6391 51.2633C27.8603 51.1329 28.1124 51.0641 28.3692 51.0641C28.626 51.0641 28.8781 51.1329 29.0993 51.2633C29.3205 51.3938 29.5027 51.581 29.627 51.8057L31.8839 55.9385L36.0167 58.1954C36.2414 58.3197 36.4287 58.5019 36.5591 58.7231C36.6895 58.9443 36.7583 59.1964 36.7583 59.4532C36.7583 59.71 36.6895 59.9621 36.5591 60.1833C36.4287 60.4045 36.2414 60.5867 36.0167 60.711L31.8839 62.9679L29.627 67.1007C29.5035 67.3265 29.3216 67.515 29.1003 67.6465C28.8791 67.778 28.6266 67.8476 28.3692 67.8482ZM24.4161 59.4568L26.5939 60.6553C26.8351 60.7872 27.0334 60.9855 27.1653 61.2267L28.362 63.4153L29.5587 61.2267C29.6907 60.9855 29.889 60.7872 30.1301 60.6553L32.3205 59.4568L30.1301 58.2601C29.889 58.1282 29.6907 57.9299 29.5587 57.6887L28.362 55.5001L27.1653 57.6887C27.0334 57.9299 26.8351 58.1282 26.5939 58.2601L24.4161 59.4568Z" fill="#164ED0"/>
<path d="M48.6396 87.8672C48.5669 87.8671 48.4942 87.8617 48.4222 87.851C48.0453 87.7943 47.7063 87.5901 47.4799 87.2835C47.2534 86.9768 47.158 86.5928 47.2147 86.2159C47.3028 85.6337 49.4824 71.8013 60.1522 60.9105C60.421 60.6484 60.7817 60.5019 61.1572 60.5023C61.5326 60.5027 61.893 60.6499 62.1613 60.9126C62.4296 61.1752 62.5845 61.5324 62.5928 61.9078C62.6012 62.2831 62.4624 62.6468 62.206 62.9212C52.2136 73.1256 50.0861 86.5105 50.0663 86.6399C50.0158 86.9818 49.8438 87.2941 49.5817 87.5195C49.3197 87.7449 48.9853 87.8683 48.6396 87.8672Z" fill="#164ED0"/>
<path d="M63.6308 67.8482C63.3734 67.8476 63.1209 67.778 62.8996 67.6465C62.6784 67.515 62.4965 67.3265 62.373 67.1007L60.1161 62.9679L55.9833 60.711C55.7586 60.5867 55.5713 60.4045 55.4409 60.1833C55.3105 59.9621 55.2417 59.71 55.2417 59.4532C55.2417 59.1964 55.3105 58.9443 55.4409 58.7231C55.5713 58.5019 55.7586 58.3197 55.9833 58.1954L60.1161 55.9385L62.373 51.8057C62.4973 51.581 62.6795 51.3938 62.9007 51.2633C63.1219 51.1329 63.374 51.0641 63.6308 51.0641C63.8876 51.0641 64.1396 51.1329 64.3608 51.2633C64.582 51.3938 64.7643 51.581 64.8886 51.8057L67.1437 55.9385L71.2765 58.1954C71.5012 58.3197 71.6884 58.5019 71.8189 58.7231C71.9493 58.9443 72.018 59.1964 72.018 59.4532C72.018 59.71 71.9493 59.9621 71.8189 60.1833C71.6884 60.4045 71.5012 60.5867 71.2765 60.711L67.1437 62.9679L64.8886 67.1007C64.765 67.3265 64.5832 67.515 64.3619 67.6465C64.1406 67.778 63.8881 67.8476 63.6308 67.8482ZM59.6776 59.4568L61.868 60.6553C62.1092 60.7872 62.3075 60.9855 62.4394 61.2267L63.6362 63.4153L64.8329 61.2267C64.9648 60.9855 65.1631 60.7872 65.4043 60.6553L67.5929 59.4568L65.4061 58.2601C65.1649 58.1282 64.9666 57.9299 64.8347 57.6887L63.638 55.5001L62.4412 57.6887C62.3093 57.9299 62.111 58.1282 61.8698 58.2601L59.6776 59.4568Z" fill="#164ED0"/>
<path d="M51.7714 58.1559C51.6346 58.1553 51.4986 58.1359 51.3671 58.0984L45.9998 56.5261L40.6326 58.0984C40.3849 58.1711 40.1222 58.1758 39.8721 58.112C39.6219 58.0481 39.3936 57.9181 39.2111 57.7356C39.0285 57.553 38.8985 57.3247 38.8347 57.0746C38.7708 56.8245 38.7755 56.5618 38.8483 56.3141L40.4295 50.9468L38.8573 45.5777C38.7845 45.3301 38.7798 45.0674 38.8437 44.8172C38.9075 44.5671 39.0375 44.3388 39.2201 44.1562C39.4026 43.9737 39.6309 43.8437 39.881 43.7798C40.1312 43.716 40.3939 43.7207 40.6416 43.7934L45.9998 45.3675L51.3671 43.7934C51.6148 43.7207 51.8775 43.716 52.1276 43.7798C52.3778 43.8437 52.6061 43.9737 52.7886 44.1562C52.9712 44.3388 53.1012 44.5671 53.165 44.8172C53.2288 45.0674 53.2241 45.3301 53.1514 45.5777L51.5791 50.9468L53.1514 56.3141C53.2142 56.5284 53.2262 56.7545 53.1865 56.9743C53.1467 57.1941 53.0563 57.4016 52.9223 57.5803C52.7884 57.7591 52.6146 57.9042 52.4149 58.0041C52.2151 58.104 51.9948 58.1559 51.7714 58.1559ZM45.9998 53.59C46.1366 53.5903 46.2727 53.6097 46.4041 53.6475L49.6529 54.5998L48.6952 51.3493C48.6181 51.0859 48.6181 50.8059 48.6952 50.5425L49.6457 47.292L46.397 48.2443C46.133 48.3217 45.8523 48.3217 45.5884 48.2443L42.3396 47.292L43.3045 50.5425C43.3815 50.8059 43.3815 51.0859 43.3045 51.3493L42.354 54.5998L45.6027 53.6475C45.7319 53.6103 45.8655 53.591 45.9998 53.59Z" fill="#164ED0"/>
<path d="M76.2919 87.8672H15.7085C15.3272 87.8672 14.9616 87.7157 14.692 87.4461C14.4224 87.1766 14.271 86.8109 14.271 86.4297V35.3805C14.271 34.9992 14.4224 34.6336 14.692 34.364C14.9616 34.0944 15.3272 33.943 15.7085 33.943H76.2919C76.6732 33.943 77.0388 34.0944 77.3084 34.364C77.578 34.6336 77.7294 34.9992 77.7294 35.3805V86.4297C77.7294 86.8109 77.578 87.1766 77.3084 87.4461C77.0388 87.7157 76.6732 87.8672 76.2919 87.8672ZM17.146 84.9922H74.8544V36.818H17.146V84.9922Z" fill="#164ED0"/>
<path d="M45.9999 25.9828C45.7672 25.9826 45.538 25.9259 45.3321 25.8176C45.1261 25.7094 44.9496 25.5527 44.8175 25.3611C44.6378 25.0934 40.2876 18.7342 40.2876 13.11C40.2876 4.7797 44.6594 4.12564 45.9999 4.12564C47.3403 4.12564 51.7121 4.77252 51.7121 13.11C51.7121 18.7342 47.3673 25.0934 47.1822 25.3611C47.0502 25.5527 46.8736 25.7094 46.6676 25.8176C46.4617 25.9259 46.2325 25.9826 45.9999 25.9828ZM45.9999 7.00783C44.2497 7.00783 43.1626 9.34377 43.1626 13.1172C43.1626 16.1593 44.8139 19.6632 45.9999 21.7889C47.1858 19.6632 48.8371 16.1593 48.8371 13.1172C48.8371 9.34377 47.75 7.00783 45.9999 7.00783Z" fill="#164ED0"/>
<path d="M46.0002 25.9828C45.6413 25.983 45.2953 25.8489 45.0303 25.6069C44.7653 25.365 44.6003 25.0326 44.5679 24.6752C44.5355 24.3178 44.6379 23.9612 44.855 23.6755C45.0722 23.3898 45.3884 23.1956 45.7414 23.1312C45.8115 23.1186 52.7492 21.8051 56.095 18.4593C58.758 15.8125 59.6385 13.3813 58.3986 12.1433C57.1588 10.9052 54.7384 11.7839 52.0772 14.4523C51.8094 14.7221 51.558 15.0077 51.3243 15.3076C51.2082 15.4566 51.0639 15.5813 50.8996 15.6745C50.7353 15.7678 50.5543 15.8277 50.3668 15.851C50.1794 15.8743 49.9892 15.8604 49.8071 15.8102C49.625 15.7599 49.4545 15.6743 49.3055 15.5582C49.1565 15.4421 49.0318 15.2978 48.9386 15.1335C48.8453 14.9693 48.7854 14.7882 48.7621 14.6008C48.7388 14.4133 48.7527 14.2231 48.8029 14.041C48.8532 13.8589 48.9388 13.6885 49.0549 13.5394C49.3596 13.1462 49.6884 12.7724 50.0395 12.42C55.9369 6.53163 59.4857 9.16405 60.4345 10.111C61.3832 11.058 64.0138 14.6032 58.1255 20.4987C54.149 24.4752 46.5788 25.9001 46.2661 25.9594C46.1784 25.9756 46.0894 25.9834 46.0002 25.9828Z" fill="#164ED0"/>
<path d="M46 25.9828C45.9126 25.9831 45.8254 25.9752 45.7394 25.9594C45.4196 25.9002 37.8494 24.4752 33.8801 20.5005C27.9863 14.6086 30.6187 11.0598 31.5657 10.111C32.5126 9.16226 36.0579 6.52984 41.9552 12.42C42.3082 12.7722 42.6389 13.1461 42.9453 13.5394C43.0671 13.6877 43.158 13.8587 43.2126 14.0426C43.2672 14.2265 43.2845 14.4194 43.2634 14.6101C43.2423 14.8008 43.1833 14.9853 43.0898 15.1528C42.9963 15.3202 42.8702 15.4673 42.719 15.5853C42.5678 15.7033 42.3944 15.7899 42.2092 15.8399C42.0241 15.8899 41.8307 15.9023 41.6407 15.8764C41.4506 15.8505 41.2676 15.7868 41.1025 15.6892C40.9375 15.5915 40.7936 15.4617 40.6794 15.3076C40.4457 15.0077 40.1943 14.7221 39.9266 14.4523C37.26 11.7911 34.836 10.907 33.6016 12.1451C32.3671 13.3831 33.2422 15.8125 35.9087 18.4665C39.2581 21.8159 46.1887 23.1186 46.2587 23.1384C46.6042 23.2102 46.9111 23.4066 47.1211 23.6902C47.3311 23.9737 47.4295 24.3246 47.3975 24.6759C47.3655 25.0273 47.2055 25.3547 46.9478 25.5957C46.6901 25.8366 46.3527 25.9744 46 25.9828Z" fill="#164ED0"/>
<path d="M78.8163 36.818H13.1836C12.8023 36.818 12.4367 36.6665 12.1671 36.3969C11.8975 36.1274 11.7461 35.7617 11.7461 35.3805V24.5453C11.7461 24.1641 11.8975 23.7984 12.1671 23.5289C12.4367 23.2593 12.8023 23.1078 13.1836 23.1078H78.8163C79.1975 23.1078 79.5631 23.2593 79.8327 23.5289C80.1023 23.7984 80.2538 24.1641 80.2538 24.5453V35.3805C80.2538 35.7617 80.1023 36.1274 79.8327 36.3969C79.5631 36.6665 79.1975 36.818 78.8163 36.818ZM14.6211 33.943H77.3788V25.9828H14.6211V33.943Z" fill="#164ED0"/>
<path d="M46 87.8672C45.6188 87.8672 45.2531 87.7157 44.9835 87.4462C44.7139 87.1766 44.5625 86.8109 44.5625 86.4297V55.0275C44.5625 54.6462 44.7139 54.2806 44.9835 54.011C45.2531 53.7415 45.6188 53.59 46 53.59C46.3812 53.59 46.7469 53.7415 47.0165 54.011C47.2861 54.2806 47.4375 54.6462 47.4375 55.0275V86.4297C47.4375 86.8109 47.2861 87.1766 47.0165 87.4462C46.7469 87.7157 46.3812 87.8672 46 87.8672Z" fill="#164ED0"/>
<path d="M30.5092 82.8557C30.2762 82.856 30.0467 82.7992 29.8407 82.6904L27.0358 81.2188L24.2309 82.6922C23.9936 82.8166 23.7262 82.8722 23.459 82.8527C23.1917 82.8332 22.9353 82.7393 22.7185 82.5818C22.5017 82.4243 22.3333 82.2093 22.2323 81.9612C22.1312 81.713 22.1015 81.4416 22.1465 81.1774L22.6856 78.0545L20.4125 75.8407C20.2209 75.6538 20.0852 75.4172 20.0208 75.1573C19.9563 74.8975 19.9658 74.6249 20.0479 74.3701C20.1301 74.1153 20.2818 73.8886 20.4859 73.7154C20.69 73.5422 20.9384 73.4294 21.2032 73.3898L24.3387 72.9334L25.7421 70.0925C25.8609 69.8523 26.0445 69.6502 26.2722 69.5088C26.4998 69.3675 26.7625 69.2926 27.0304 69.2926C27.2984 69.2926 27.561 69.3675 27.7887 69.5088C28.0163 69.6502 28.1999 69.8523 28.3188 70.0925L29.7221 72.9334L32.8577 73.3898C33.1229 73.4286 33.3719 73.5408 33.5767 73.7136C33.7815 73.8865 33.9339 74.1132 34.0167 74.3681C34.0995 74.623 34.1094 74.8959 34.0452 75.1562C33.9811 75.4164 33.8455 75.6535 33.6537 75.8407L31.3843 78.0527L31.9233 81.1756C31.9586 81.3819 31.9485 81.5933 31.8936 81.7952C31.8387 81.9971 31.7405 82.1846 31.6056 82.3446C31.4708 82.5046 31.3027 82.6332 31.113 82.7215C30.9233 82.8098 30.7166 82.8556 30.5074 82.8557H30.5092ZM27.0358 78.1641C27.2688 78.1633 27.4984 78.2201 27.7042 78.3294L28.6027 78.8002L28.432 77.8029C28.3926 77.5732 28.4096 77.3374 28.4816 77.1158C28.5536 76.8942 28.6784 76.6934 28.8453 76.5307L29.564 75.8245L28.5632 75.679C28.3332 75.6448 28.115 75.5553 27.9272 75.4182C27.7394 75.2811 27.5877 75.1005 27.485 74.892L27.0376 73.9935L26.5902 74.892C26.4875 75.1005 26.3358 75.2811 26.148 75.4182C25.9602 75.5553 25.742 75.6448 25.5121 75.679L24.5112 75.8245L25.23 76.5307C25.3968 76.6934 25.5216 76.8942 25.5936 77.1158C25.6656 77.3374 25.6826 77.5732 25.6432 77.8029L25.4635 78.8002L26.362 78.3294C26.5694 78.2192 26.801 78.1624 27.0358 78.1641Z" fill="#164ED0"/>
<path d="M68.4375 82.8557C68.2045 82.856 67.975 82.7992 67.769 82.6904L64.9641 81.2188L62.1592 82.6922C61.9219 82.8166 61.6545 82.8722 61.3873 82.8527C61.12 82.8332 60.8636 82.7394 60.6468 82.5818C60.4301 82.4243 60.2616 82.2093 60.1606 81.9612C60.0595 81.713 60.0298 81.4416 60.0748 81.1774L60.6139 78.0545L58.3444 75.8425C58.1527 75.6553 58.0171 75.4182 57.9529 75.158C57.8888 74.8977 57.8986 74.6248 57.9814 74.3699C58.0642 74.115 58.2166 73.8883 58.4214 73.7154C58.6262 73.5426 58.8753 73.4304 59.1405 73.3916L62.276 72.9352L63.6794 70.0943C63.7982 69.8541 63.9818 69.652 64.2095 69.5106C64.4371 69.3693 64.6998 69.2944 64.9677 69.2944C65.2357 69.2944 65.4983 69.3693 65.726 69.5106C65.9536 69.652 66.1372 69.8541 66.2561 70.0943L67.6594 72.9352L70.7968 73.3898C71.062 73.4286 71.311 73.5408 71.5158 73.7136C71.7206 73.8865 71.873 74.1132 71.9558 74.3681C72.0386 74.623 72.0485 74.8959 71.9843 75.1562C71.9202 75.4164 71.7846 75.6535 71.5928 75.8407L69.3233 78.0527L69.8624 81.1756C69.8977 81.3819 69.8876 81.5933 69.8327 81.7952C69.7778 81.9971 69.6796 82.1846 69.5447 82.3446C69.4099 82.5046 69.2418 82.6332 69.0521 82.7215C68.8624 82.8098 68.6557 82.8556 68.4465 82.8557H68.4375ZM64.9641 78.1641C65.1972 78.1633 65.4268 78.2201 65.6326 78.3294L66.531 78.8002L66.3603 77.8029C66.3209 77.5732 66.338 77.3374 66.41 77.1158C66.4819 76.8942 66.6067 76.6934 66.7736 76.5307L67.4923 75.8245L66.4915 75.679C66.2615 75.6448 66.0433 75.5553 65.8555 75.4182C65.6677 75.2811 65.516 75.1005 65.4133 74.892L64.9659 73.9935L64.5185 74.892C64.4158 75.1005 64.2641 75.2811 64.0763 75.4182C63.8886 75.5553 63.6703 75.6448 63.4404 75.679L62.4395 75.8245L63.1583 76.5307C63.3251 76.6934 63.4499 76.8942 63.5219 77.1158C63.5939 77.3374 63.6109 77.5732 63.5716 77.8029L63.3919 78.8002L64.2903 78.3294C64.4977 78.2192 64.7293 78.1624 64.9641 78.1641Z" fill="#164ED0"/>
</svg>
