<svg width="92" height="92" viewBox="0 0 92 92" fill="none" xmlns="http://www.w3.org/2000/svg">
<path d="M73.1006 61.0938H62.8405C62.4592 61.0938 62.0936 60.9423 61.824 60.6727C61.5544 60.4031 61.403 60.0375 61.403 59.6562C61.403 59.275 61.5544 58.9094 61.824 58.6398C62.0936 58.3702 62.4592 58.2188 62.8405 58.2188H73.1006C74.1177 58.2188 74.9784 57.597 74.9784 56.8603V8.36445C74.9784 7.62953 74.1177 7.00781 73.1006 7.00781H18.8997C17.8827 7.00781 17.022 7.62953 17.022 8.36445V56.8675C17.022 57.6042 17.8827 58.2259 18.8997 58.2259H44.1153C44.4965 58.2259 44.8621 58.3774 45.1317 58.647C45.4013 58.9166 45.5528 59.2822 45.5528 59.6634C45.5528 60.0447 45.4013 60.4103 45.1317 60.6799C44.8621 60.9495 44.4965 61.1009 44.1153 61.1009H18.8997C16.2799 61.1009 14.147 59.2016 14.147 56.8675V8.36445C14.147 6.02852 16.2799 4.13281 18.8997 4.13281H73.1006C75.7205 4.13281 77.8534 6.03211 77.8534 8.36445V56.8675C77.8534 59.2016 75.7205 61.0938 73.1006 61.0938Z" fill="#164ED0"/>
<path d="M76.4137 16.6894H15.5859C15.2047 16.6894 14.8391 16.5379 14.5695 16.2683C14.2999 15.9987 14.1484 15.6331 14.1484 15.2519C14.1484 14.8706 14.2999 14.505 14.5695 14.2354C14.8391 13.9658 15.2047 13.8144 15.5859 13.8144H76.4137C76.795 13.8144 77.1606 13.9658 77.4302 14.2354C77.6998 14.505 77.8512 14.8706 77.8512 15.2519C77.8512 15.6331 77.6998 15.9987 77.4302 16.2683C77.1606 16.5379 76.795 16.6894 76.4137 16.6894Z" fill="#164ED0"/>
<path d="M62.8621 80.7803H47.6263C47.4083 80.7805 47.1931 80.7311 46.997 80.6358C46.8008 80.5406 46.629 80.402 46.4943 80.2305L36.2521 67.1654C35.4946 66.4107 35.0679 65.3861 35.0659 64.3169C35.0639 63.2476 35.4867 62.2214 36.2414 61.4639C36.996 60.7064 38.0206 60.2797 39.0899 60.2777C40.1591 60.2757 41.1853 60.6985 41.9428 61.4531L42.6778 62.0101V46.5067C42.6778 45.4378 43.1024 44.4126 43.8582 43.6568C44.6141 42.9009 45.6392 42.4763 46.7081 42.4763C47.7771 42.4763 48.8022 42.9009 49.5581 43.6568C50.3139 44.4126 50.7385 45.4378 50.7385 46.5067V51.3098C51.2933 51.144 51.8774 51.0997 52.4508 51.1798C53.0243 51.2599 53.5738 51.4626 54.0619 51.7741C54.55 52.0856 54.9653 52.4986 55.2796 52.985C55.5938 53.4713 55.7996 54.0196 55.883 54.5926C56.4771 54.4079 57.106 54.3632 57.7203 54.4622C58.3346 54.5612 58.9176 54.8011 59.4236 55.1632C59.9297 55.5253 60.3449 55.9996 60.6369 56.5491C60.9289 57.0985 61.0896 57.7082 61.1065 58.3301C61.482 58.218 61.8718 58.1611 62.2637 58.1612C63.3323 58.1622 64.3569 58.5871 65.1126 59.3428C65.8682 60.0984 66.2931 61.123 66.2941 62.1916V65.4619C66.2939 65.5305 66.2891 65.5989 66.2797 65.6668L64.2852 79.5476C64.2359 79.8899 64.0649 80.203 63.8035 80.4294C63.5421 80.6558 63.2079 80.7804 62.8621 80.7803ZM48.3253 77.9053H61.6222L63.4191 65.3595V62.1916C63.4191 61.8852 63.2974 61.5913 63.0807 61.3746C62.864 61.158 62.5701 61.0362 62.2637 61.0362C61.9579 61.0381 61.6651 61.1605 61.4488 61.3767C61.2325 61.593 61.1102 61.8858 61.1083 62.1916C61.1083 62.5729 60.9569 62.9385 60.6873 63.2081C60.4177 63.4777 60.0521 63.6291 59.6708 63.6291C59.2896 63.6291 58.9239 63.4777 58.6543 63.2081C58.3848 62.9385 58.2333 62.5729 58.2333 62.1916V58.4415C58.2394 58.2861 58.2141 58.131 58.1589 57.9856C58.1036 57.8402 58.0196 57.7074 57.9117 57.5953C57.8039 57.4831 57.6746 57.3939 57.5315 57.333C57.3883 57.272 57.2344 57.2406 57.0788 57.2406C56.9233 57.2406 56.7693 57.272 56.6262 57.333C56.483 57.3939 56.3537 57.4831 56.2459 57.5953C56.1381 57.7074 56.054 57.8402 55.9988 57.9856C55.9435 58.131 55.9182 58.2861 55.9243 58.4415C55.9243 58.8228 55.7729 59.1884 55.5033 59.458C55.2337 59.7276 54.8681 59.879 54.4868 59.879C54.1056 59.879 53.7399 59.7276 53.4704 59.458C53.2008 59.1884 53.0493 58.8228 53.0493 58.4415V55.1641C53.0493 54.8576 52.9276 54.5637 52.7109 54.3471C52.4942 54.1304 52.2004 54.0087 51.8939 54.0087C51.5875 54.0087 51.2936 54.1304 51.0769 54.3471C50.8603 54.5637 50.7385 54.8576 50.7385 55.1641C50.7385 55.5453 50.5871 55.9109 50.3175 56.1805C50.0479 56.4501 49.6823 56.6016 49.301 56.6016C48.9198 56.6016 48.5542 56.4501 48.2846 56.1805C48.015 55.9109 47.8635 55.5453 47.8635 55.1641V46.5067C47.8635 46.2003 47.7418 45.9064 47.5251 45.6897C47.3085 45.473 47.0146 45.3513 46.7081 45.3513C46.4017 45.3513 46.1078 45.473 45.8912 45.6897C45.6745 45.9064 45.5528 46.2003 45.5528 46.5067V64.9067C45.5528 65.1743 45.4782 65.4366 45.3374 65.6641C45.1965 65.8915 44.9949 66.0752 44.7553 66.1943C44.5157 66.3135 44.2476 66.3634 43.9812 66.3384C43.7148 66.3135 43.4607 66.2147 43.2474 66.0531L40.137 63.6974C40.0844 63.6577 40.0346 63.6145 39.9878 63.568C39.7705 63.3529 39.477 63.2321 39.1712 63.2321C38.8653 63.2321 38.5718 63.3529 38.3545 63.568C38.1389 63.7852 38.0179 64.0787 38.0179 64.3847C38.0179 64.6907 38.1389 64.9843 38.3545 65.2014C38.3956 65.2419 38.434 65.2852 38.4695 65.3308L48.3253 77.9053Z" fill="#164ED0"/>
<path d="M49.3008 63.9885C48.9195 63.9885 48.5539 63.8371 48.2843 63.5675C48.0147 63.2979 47.8633 62.9323 47.8633 62.551V55.1641C47.8633 54.7828 48.0147 54.4172 48.2843 54.1476C48.5539 53.878 48.9195 53.7266 49.3008 53.7266C49.682 53.7266 50.0477 53.878 50.3172 54.1476C50.5868 54.4172 50.7383 54.7828 50.7383 55.1641V62.5438C50.7392 62.7332 50.7027 62.9209 50.6309 63.0961C50.5591 63.2714 50.4534 63.4307 50.3198 63.5649C50.1862 63.6992 50.0274 63.8057 49.8526 63.8784C49.6777 63.9511 49.4902 63.9885 49.3008 63.9885Z" fill="#164ED0"/>
<path d="M54.4868 63.9885C54.1056 63.9885 53.7399 63.8371 53.4703 63.5675C53.2008 63.2979 53.0493 62.9323 53.0493 62.551V58.4416C53.0493 58.0603 53.2008 57.6947 53.4703 57.4251C53.7399 57.1555 54.1056 57.0041 54.4868 57.0041C54.8681 57.0041 55.2337 57.1555 55.5033 57.4251C55.7729 57.6947 55.9243 58.0603 55.9243 58.4416V62.551C55.9243 62.9323 55.7729 63.2979 55.5033 63.5675C55.2337 63.8371 54.8681 63.9885 54.4868 63.9885Z" fill="#164ED0"/>
<path d="M65.9721 87.8672H44.5156C44.1344 87.8672 43.7687 87.7157 43.4992 87.4461C43.2296 87.1766 43.0781 86.8109 43.0781 86.4297V79.3428C43.0781 78.9616 43.2296 78.5959 43.4992 78.3263C43.7687 78.0568 44.1344 77.9053 44.5156 77.9053H65.9721C66.3534 77.9053 66.719 78.0568 66.9886 78.3263C67.2582 78.5959 67.4096 78.9616 67.4096 79.3428V86.4297C67.4096 86.8109 67.2582 87.1766 66.9886 87.4461C66.719 87.7157 66.3534 87.8672 65.9721 87.8672ZM45.9531 84.9922H64.5346V80.7803H45.9531V84.9922Z" fill="#164ED0"/>
<path d="M70.6012 11.8486H55.4302C55.0489 11.8486 54.6833 11.6972 54.4137 11.4276C54.1441 11.158 53.9927 10.7924 53.9927 10.4111C53.9927 10.0299 54.1441 9.66422 54.4137 9.39464C54.6833 9.12505 55.0489 8.9736 55.4302 8.9736H70.6012C70.9824 8.9736 71.3481 9.12505 71.6177 9.39464C71.8872 9.66422 72.0387 10.0299 72.0387 10.4111C72.0387 10.7924 71.8872 11.158 71.6177 11.4276C71.3481 11.6972 70.9824 11.8486 70.6012 11.8486Z" fill="#164ED0"/>
<path d="M27.0016 11.8486H21.3989C21.0177 11.8486 20.652 11.6972 20.3825 11.4276C20.1129 11.158 19.9614 10.7924 19.9614 10.4111C19.9614 10.0299 20.1129 9.66422 20.3825 9.39464C20.652 9.12505 21.0177 8.9736 21.3989 8.9736H27.0016C27.3828 8.9736 27.7485 9.12505 28.018 9.39464C28.2876 9.66422 28.4391 10.0299 28.4391 10.4111C28.4391 10.7924 28.2876 11.158 28.018 11.4276C27.7485 11.6972 27.3828 11.8486 27.0016 11.8486Z" fill="#164ED0"/>
<path d="M37.005 11.8486H31.4023C31.0211 11.8486 30.6555 11.6972 30.3859 11.4276C30.1163 11.158 29.9648 10.7924 29.9648 10.4111C29.9648 10.0299 30.1163 9.66422 30.3859 9.39464C30.6555 9.12505 31.0211 8.9736 31.4023 8.9736H37.005C37.3862 8.9736 37.7519 9.12505 38.0215 9.39464C38.291 9.66422 38.4425 10.0299 38.4425 10.4111C38.4425 10.7924 38.291 11.158 38.0215 11.4276C37.7519 11.6972 37.3862 11.8486 37.005 11.8486Z" fill="#164ED0"/>
<path d="M47.0099 11.8486H41.4072C41.026 11.8486 40.6603 11.6972 40.3908 11.4276C40.1212 11.158 39.9697 10.7924 39.9697 10.4111C39.9697 10.0299 40.1212 9.66422 40.3908 9.39464C40.6603 9.12505 41.026 8.9736 41.4072 8.9736H47.0099C47.3911 8.9736 47.7568 9.12505 48.0263 9.39464C48.2959 9.66422 48.4474 10.0299 48.4474 10.4111C48.4474 10.7924 48.2959 11.158 48.0263 11.4276C47.7568 11.6972 47.3911 11.8486 47.0099 11.8486Z" fill="#164ED0"/>
<path d="M46.0001 33.8729C45.1057 33.8771 44.2341 33.5911 43.5161 33.0578C42.7981 32.5245 42.2725 31.7727 42.0182 30.9152C41.9186 30.5532 41.9646 30.1666 42.1463 29.838C42.3281 29.5095 42.6312 29.2651 42.9908 29.1571C43.3504 29.0491 43.738 29.0861 44.0707 29.2602C44.4034 29.4343 44.6547 29.7317 44.771 30.0887C44.8402 30.3164 44.9714 30.5203 45.1497 30.6779C45.3281 30.8354 45.5467 30.9403 45.7812 30.9809C46.0157 31.0215 46.2569 30.9961 46.4778 30.9076C46.6987 30.8192 46.8907 30.6711 47.0324 30.4799C47.1741 30.2887 47.2599 30.0619 47.2803 29.8248C47.3006 29.5876 47.2547 29.3495 47.1477 29.137C47.0406 28.9245 46.8766 28.7458 46.674 28.621C46.4714 28.4962 46.2381 28.4301 46.0001 28.4302C45.2291 28.4303 44.4732 28.2162 43.8169 27.8118C43.1605 27.4073 42.6294 26.8284 42.283 26.1396C41.9365 25.4509 41.7883 24.6794 41.8549 23.9113C41.9214 23.1432 42.2002 22.4087 42.6599 21.7898C43.1197 21.1709 43.7424 20.6919 44.4586 20.4064C45.1747 20.1209 45.9562 20.04 46.7156 20.1728C47.4751 20.3056 48.1827 20.6468 48.7595 21.1584C49.3362 21.6701 49.7595 22.3319 49.9819 23.0701C50.0392 23.2516 50.0599 23.4428 50.0427 23.6324C50.0255 23.822 49.9708 24.0063 49.8818 24.1746C49.7928 24.3429 49.6713 24.4919 49.5242 24.6128C49.3772 24.7337 49.2076 24.8243 49.0253 24.8791C48.843 24.934 48.6516 24.9521 48.4622 24.9324C48.2728 24.9127 48.0893 24.8555 47.9222 24.7643C47.7551 24.6731 47.6078 24.5495 47.4888 24.4009C47.3698 24.2523 47.2816 24.0815 47.2291 23.8984C47.1602 23.6706 47.0293 23.4663 46.8511 23.3085C46.6728 23.1507 46.4542 23.0455 46.2196 23.0046C45.9851 22.9638 45.7438 22.989 45.5227 23.0773C45.3016 23.1657 45.1094 23.3137 44.9676 23.5049C44.8257 23.6961 44.7398 23.923 44.7194 24.1602C44.6989 24.3974 44.7448 24.6356 44.8519 24.8483C44.959 25.0609 45.1231 25.2396 45.3258 25.3644C45.5286 25.4893 45.762 25.5553 46.0001 25.5552C46.5535 25.5437 47.1037 25.6427 47.6183 25.8466C48.1329 26.0504 48.6017 26.3549 48.9972 26.7422C49.3927 27.1295 49.7068 27.5919 49.9213 28.1022C50.1358 28.6125 50.2463 29.1605 50.2463 29.714C50.2463 30.2676 50.1358 30.8155 49.9213 31.3258C49.7068 31.8361 49.3927 32.2985 48.9972 32.6858C48.6017 33.0732 48.1329 33.3777 47.6183 33.5815C47.1037 33.7853 46.5535 33.8844 46.0001 33.8729Z" fill="#164ED0"/>
<path d="M46 22.9856C45.6188 22.9856 45.2531 22.8342 44.9835 22.5646C44.7139 22.295 44.5625 21.9294 44.5625 21.5481V19.5212C44.5625 19.14 44.7139 18.7744 44.9835 18.5048C45.2531 18.2352 45.6188 18.0837 46 18.0837C46.3812 18.0837 46.7469 18.2352 47.0165 18.5048C47.2861 18.7744 47.4375 19.14 47.4375 19.5212V21.5481C47.4375 21.9294 47.2861 22.295 47.0165 22.5646C46.7469 22.8342 46.3812 22.9856 46 22.9856Z" fill="#164ED0"/>
<path d="M46 35.9016C45.6188 35.9016 45.2531 35.7501 44.9835 35.4805C44.7139 35.2109 44.5625 34.8453 44.5625 34.4641V32.4354C44.5625 32.0541 44.7139 31.6885 44.9835 31.4189C45.2531 31.1493 45.6188 30.9979 46 30.9979C46.3812 30.9979 46.7469 31.1493 47.0165 31.4189C47.2861 31.6885 47.4375 32.0541 47.4375 32.4354V34.4641C47.4375 34.8453 47.2861 35.2109 47.0165 35.4805C46.7469 35.7501 46.3812 35.9016 46 35.9016Z" fill="#164ED0"/>
<path d="M62.2563 49.8759H49.3008C48.9196 49.8759 48.554 49.7244 48.2844 49.4548C48.0148 49.1852 47.8633 48.8196 47.8633 48.4384C47.8633 48.0571 48.0148 47.6915 48.2844 47.4219C48.554 47.1523 48.9196 47.0009 49.3008 47.0009H62.2563C63.1618 47.0009 64.0302 46.6412 64.6704 46.0009C65.3107 45.3606 65.6704 44.4923 65.6704 43.5868C65.6704 42.6813 65.3107 41.8129 64.6704 41.1727C64.0302 40.5324 63.1618 40.1727 62.2563 40.1727H29.7437C28.8382 40.1727 27.9698 40.5324 27.3295 41.1727C26.6893 41.8129 26.3296 42.6813 26.3296 43.5868C26.3296 44.4923 26.6893 45.3606 27.3295 46.0009C27.9698 46.6412 28.8382 47.0009 29.7437 47.0009H44.1187C44.4999 47.0009 44.8655 47.1523 45.1351 47.4219C45.4047 47.6915 45.5562 48.0571 45.5562 48.4384C45.5562 48.8196 45.4047 49.1852 45.1351 49.4548C44.8655 49.7244 44.4999 49.8759 44.1187 49.8759H29.7437C28.9178 49.8759 28.1 49.7132 27.3369 49.3971C26.5739 49.0811 25.8806 48.6178 25.2966 48.0338C24.7126 47.4498 24.2494 46.7565 23.9333 45.9935C23.6173 45.2305 23.4546 44.4127 23.4546 43.5868C23.4546 42.7609 23.6173 41.9431 23.9333 41.1801C24.2494 40.417 24.7126 39.7237 25.2966 39.1398C25.8806 38.5558 26.5739 38.0925 27.3369 37.7765C28.1 37.4604 28.9178 37.2977 29.7437 37.2977H62.2563C63.9234 37.3006 65.5214 37.9641 66.7002 39.1429C67.879 40.3217 68.5425 41.9197 68.5454 43.5868C68.5454 45.2548 67.8828 46.8544 66.7034 48.0338C65.5239 49.2133 63.9243 49.8759 62.2563 49.8759Z" fill="#164ED0"/>
</svg>
