<svg width="92" height="92" viewBox="0 0 92 92" fill="none" xmlns="http://www.w3.org/2000/svg">
<path d="M67.7618 88.6758H24.2379C22.8253 88.6743 21.471 88.1126 20.4722 87.1137C19.4734 86.1149 18.9116 84.7606 18.9102 83.348V19.444C18.9116 18.0314 19.4734 16.6771 20.4722 15.6783C21.471 14.6794 22.8253 14.1177 24.2379 14.1162H35.2078C35.5652 14.1162 35.908 14.2582 36.1607 14.511C36.4135 14.7637 36.5555 15.1065 36.5555 15.4639C36.5555 15.8213 36.4135 16.1641 36.1607 16.4168C35.908 16.6696 35.5652 16.8116 35.2078 16.8116H24.2379C23.5399 16.812 22.8706 17.0895 22.377 17.5831C21.8834 18.0767 21.6059 18.746 21.6055 19.444V83.348C21.6059 84.0461 21.8834 84.7153 22.377 85.2089C22.8706 85.7025 23.5399 85.98 24.2379 85.9805H67.7618C68.4598 85.98 69.1291 85.7025 69.6227 85.2089C70.1162 84.7153 70.3937 84.0461 70.3942 83.348V19.444C70.3937 18.746 70.1162 18.0767 69.6227 17.5831C69.1291 17.0895 68.4598 16.812 67.7618 16.8116H56.8009C56.4434 16.8116 56.1007 16.6696 55.8479 16.4168C55.5952 16.1641 55.4532 15.8213 55.4532 15.4639C55.4532 15.1065 55.5952 14.7637 55.8479 14.511C56.1007 14.2582 56.4434 14.1162 56.8009 14.1162H67.7618C69.1744 14.1177 70.5287 14.6794 71.5275 15.6783C72.5263 16.6771 73.0881 18.0314 73.0895 19.444V83.348C73.0881 84.7606 72.5263 86.1149 71.5275 87.1137C70.5287 88.1126 69.1744 88.6743 67.7618 88.6758Z" fill="#164ED0"/>
<path d="M56.7939 22.443H35.208C34.8506 22.443 34.5078 22.301 34.2551 22.0483C34.0023 21.7955 33.8604 21.4527 33.8604 21.0953V9.8343C33.8601 9.65726 33.8948 9.48191 33.9625 9.31829C34.0301 9.15468 34.1294 9.00602 34.2545 8.88084C34.3797 8.75565 34.5284 8.65639 34.692 8.58875C34.8556 8.5211 35.031 8.48641 35.208 8.48664H39.711C39.9975 7.02923 40.7813 5.71658 41.9284 4.77303C43.0755 3.82949 44.5147 3.31363 46 3.31363C47.4853 3.31363 48.9246 3.82949 50.0717 4.77303C51.2188 5.71658 52.0026 7.02923 52.2891 8.48664H56.7957C57.1531 8.48664 57.4959 8.62863 57.7486 8.88136C58.0013 9.1341 58.1433 9.47688 58.1433 9.8343V21.0953C58.1433 21.2724 58.1084 21.4478 58.0406 21.6115C57.9727 21.7751 57.8733 21.9237 57.748 22.0489C57.6226 22.1741 57.4739 22.2733 57.3101 22.3409C57.1464 22.4085 56.971 22.4432 56.7939 22.443ZM36.5557 19.7477H55.4462V11.182H51.06C50.8807 11.1818 50.7032 11.1458 50.5379 11.0762C50.3726 11.0066 50.2228 10.9047 50.0973 10.7766C49.9719 10.6484 49.8732 10.4966 49.8071 10.3298C49.741 10.1631 49.7088 9.98487 49.7124 9.80555V9.73367C49.7124 8.74862 49.3211 7.80392 48.6245 7.10738C47.928 6.41084 46.9833 6.01953 45.9982 6.01953C45.0132 6.01953 44.0685 6.41084 43.3719 7.10738C42.6754 7.80392 42.2841 8.74862 42.2841 9.73367V9.80555C42.2877 9.98487 42.2555 10.1631 42.1894 10.3298C42.1233 10.4966 42.0246 10.6484 41.8991 10.7766C41.7737 10.9047 41.6239 11.0066 41.4586 11.0762C41.2933 11.1458 41.1158 11.1818 40.9364 11.182H36.5521L36.5557 19.7477Z" fill="#164ED0"/>
<path d="M26.6924 88.6758C26.335 88.6758 25.9922 88.5338 25.7394 88.2811C25.4867 88.0283 25.3447 87.6855 25.3447 87.3281V15.4639C25.3447 15.1065 25.4867 14.7637 25.7394 14.511C25.9922 14.2582 26.335 14.1162 26.6924 14.1162C27.0498 14.1162 27.3926 14.2582 27.6453 14.511C27.8981 14.7637 28.04 15.1065 28.04 15.4639V87.3281C28.04 87.6855 27.8981 88.0283 27.6453 88.2811C27.3926 88.5338 27.0498 88.6758 26.6924 88.6758Z" fill="#164ED0"/>
<path d="M65.3074 88.6758C64.9516 88.6734 64.6111 88.5304 64.3603 88.2779C64.1095 88.0254 63.9687 87.684 63.9688 87.3281V15.4639C63.9688 15.1065 64.1107 14.7637 64.3635 14.511C64.6162 14.2582 64.959 14.1162 65.3164 14.1162C65.6738 14.1162 66.0166 14.2582 66.2693 14.511C66.5221 14.7637 66.6641 15.1065 66.6641 15.4639V87.3281C66.6641 87.5058 66.6289 87.6818 66.5606 87.8459C66.4923 88.01 66.3923 88.159 66.2662 88.2842C66.1401 88.4095 65.9905 88.5086 65.8259 88.5758C65.6614 88.643 65.4852 88.6769 65.3074 88.6758Z" fill="#164ED0"/>
<path d="M65.3072 82.2394H26.6924C26.335 82.2394 25.9922 82.0974 25.7394 81.8447C25.4867 81.5919 25.3447 81.2491 25.3447 80.8917C25.3447 80.5343 25.4867 80.1915 25.7394 79.9388C25.9922 79.6861 26.335 79.5441 26.6924 79.5441H65.3072C65.6647 79.5441 66.0074 79.6861 66.2602 79.9388C66.5129 80.1915 66.6549 80.5343 66.6549 80.8917C66.6549 81.2491 66.5129 81.5919 66.2602 81.8447C66.0074 82.0974 65.6647 82.2394 65.3072 82.2394Z" fill="#164ED0"/>
<path d="M57.6653 43.8977H34.3364C34.1594 43.8977 33.9842 43.8628 33.8207 43.7951C33.6572 43.7274 33.5086 43.6281 33.3835 43.503C33.2583 43.3778 33.1591 43.2292 33.0914 43.0657C33.0236 42.9022 32.9888 42.727 32.9888 42.55V27.6198C32.9888 27.2624 33.1308 26.9196 33.3835 26.6668C33.6362 26.4141 33.979 26.2721 34.3364 26.2721H57.6653C58.0227 26.2721 58.3655 26.4141 58.6182 26.6668C58.8709 26.9196 59.0129 27.2624 59.0129 27.6198V42.55C59.0129 42.727 58.9781 42.9022 58.9103 43.0657C58.8426 43.2292 58.7433 43.3778 58.6182 43.503C58.4931 43.6281 58.3445 43.7274 58.181 43.7951C58.0175 43.8628 57.8422 43.8977 57.6653 43.8977ZM35.6841 41.2024H56.3176V28.9674H35.6841V41.2024Z" fill="#164ED0"/>
<path d="M46.0002 38.0147C45.701 38.0149 45.4103 37.9156 45.1737 37.7326L33.5101 28.6853C33.2275 28.4663 33.0435 28.1441 32.9985 27.7894C32.9535 27.4347 33.0513 27.0767 33.2703 26.7941C33.4892 26.5115 33.8115 26.3275 34.1662 26.2825C34.5208 26.2375 34.8789 26.3352 35.1615 26.5542L46.0002 34.9618L56.839 26.5542C57.1216 26.3352 57.4796 26.2375 57.8343 26.2825C58.1889 26.3275 58.5112 26.5115 58.7302 26.7941C58.9492 27.0767 59.0469 27.4347 59.0019 27.7894C58.9569 28.1441 58.7729 28.4663 58.4903 28.6853L46.8268 37.7344C46.5899 37.9168 46.2992 38.0154 46.0002 38.0147Z" fill="#164ED0"/>
<path d="M34.3364 43.8977C34.0552 43.898 33.781 43.8103 33.5521 43.6469C33.3232 43.4836 33.1511 43.2527 33.06 42.9867C32.9689 42.7207 32.9633 42.4328 33.0439 42.1634C33.1246 41.894 33.2875 41.6566 33.5099 41.4845L43.1339 34.0202C43.2733 33.9069 43.4338 33.8226 43.6062 33.7722C43.7786 33.7218 43.9594 33.7064 44.1378 33.7268C44.3163 33.7473 44.4888 33.8032 44.6453 33.8913C44.8019 33.9794 44.9392 34.0979 45.0493 34.2398C45.1593 34.3818 45.2399 34.5443 45.2863 34.7178C45.3327 34.8913 45.3439 35.0723 45.3193 35.2503C45.2947 35.4282 45.2348 35.5994 45.1431 35.7538C45.0514 35.9082 44.9297 36.0428 44.7853 36.1495L35.1612 43.6156C34.9255 43.7991 34.6351 43.8984 34.3364 43.8977Z" fill="#164ED0"/>
<path d="M57.6635 43.8977C57.3649 43.8981 57.0746 43.7988 56.8388 43.6155L47.2147 36.1495C47.0749 36.0405 46.9579 35.905 46.8705 35.7508C46.783 35.5966 46.7268 35.4266 46.705 35.2507C46.6833 35.0747 46.6964 34.8962 46.7436 34.7253C46.7908 34.5545 46.8712 34.3945 46.9802 34.2547C47.0892 34.1149 47.2247 33.9979 47.379 33.9105C47.5332 33.823 47.7031 33.7668 47.8791 33.7451C48.055 33.7233 48.2335 33.7364 48.4044 33.7836C48.5753 33.8308 48.7352 33.9112 48.875 34.0202L58.4991 41.4845C58.7214 41.6566 58.8843 41.894 58.965 42.1634C59.0457 42.4328 59.0401 42.7207 58.9489 42.9867C58.8578 43.2527 58.6858 43.4836 58.4569 43.6469C58.228 43.8103 57.9537 43.898 57.6725 43.8977H57.6635Z" fill="#164ED0"/>
<path d="M35.8101 54.9341C34.9216 54.9341 34.0531 54.6706 33.3143 54.177C32.5756 53.6834 31.9998 52.9818 31.6598 52.1609C31.3198 51.3401 31.2309 50.4369 31.4042 49.5655C31.5775 48.6941 32.0054 47.8937 32.6336 47.2654C33.2618 46.6372 34.0623 46.2093 34.9337 46.036C35.8051 45.8627 36.7083 45.9516 37.5291 46.2916C38.35 46.6316 39.0516 47.2074 39.5452 47.9461C40.0388 48.6849 40.3022 49.5534 40.3022 50.4419C40.2994 51.6324 39.8252 52.7733 38.9834 53.6152C38.1415 54.457 37.0006 54.9312 35.8101 54.9341ZM35.8101 48.6342C35.4547 48.6342 35.1073 48.7396 34.8118 48.937C34.5163 49.1345 34.286 49.4151 34.15 49.7434C34.014 50.0718 33.9784 50.4331 34.0477 50.7816C34.117 51.1302 34.2882 51.4504 34.5395 51.7017C34.7908 51.953 35.1109 52.1241 35.4595 52.1934C35.8081 52.2628 36.1694 52.2272 36.4977 52.0912C36.826 51.9552 37.1067 51.7249 37.3041 51.4294C37.5015 51.1339 37.6069 50.7865 37.6069 50.4311C37.6069 49.9545 37.4176 49.4975 37.0806 49.1605C36.7437 48.8235 36.2866 48.6342 35.8101 48.6342Z" fill="#164ED0"/>
<path d="M59.3398 51.7841H44.3916C44.0342 51.7841 43.6914 51.6422 43.4387 51.3894C43.1859 51.1367 43.0439 50.7939 43.0439 50.4365C43.0439 50.0791 43.1859 49.7363 43.4387 49.4836C43.6914 49.2308 44.0342 49.0888 44.3916 49.0888H59.3398C59.6972 49.0888 60.04 49.2308 60.2927 49.4836C60.5455 49.7363 60.6875 50.0791 60.6875 50.4365C60.6875 50.7939 60.5455 51.1367 60.2927 51.3894C60.04 51.6422 59.6972 51.7841 59.3398 51.7841Z" fill="#164ED0"/>
<path d="M35.8101 65.3254C34.9216 65.3254 34.0531 65.0619 33.3143 64.5683C32.5756 64.0747 31.9998 63.3731 31.6598 62.5523C31.3198 61.7314 31.2309 60.8282 31.4042 59.9568C31.5775 59.0854 32.0054 58.285 32.6336 57.6567C33.2618 57.0285 34.0623 56.6007 34.9337 56.4273C35.8051 56.254 36.7083 56.3429 37.5291 56.683C38.35 57.023 39.0516 57.5987 39.5452 58.3375C40.0388 59.0762 40.3022 59.9447 40.3022 60.8332C40.2994 62.0237 39.8252 63.1647 38.9834 64.0065C38.1415 64.8483 37.0006 65.3225 35.8101 65.3254ZM35.8101 59.0237C35.4547 59.0237 35.1073 59.1291 34.8118 59.3266C34.5163 59.524 34.286 59.8046 34.15 60.133C34.014 60.4613 33.9784 60.8226 34.0477 61.1712C34.117 61.5197 34.2882 61.8399 34.5395 62.0912C34.7908 62.3425 35.1109 62.5136 35.4595 62.583C35.8081 62.6523 36.1694 62.6167 36.4977 62.4807C36.826 62.3447 37.1067 62.1144 37.3041 61.8189C37.5015 61.5234 37.6069 61.176 37.6069 60.8206C37.6069 60.3441 37.4176 59.887 37.0806 59.55C36.7437 59.2131 36.2866 59.0237 35.8101 59.0237Z" fill="#164ED0"/>
<path d="M59.3398 62.1719H44.3916C44.0342 62.1719 43.6914 62.0299 43.4387 61.7772C43.1859 61.5244 43.0439 61.1816 43.0439 60.8242C43.0439 60.4668 43.1859 60.124 43.4387 59.8713C43.6914 59.6185 44.0342 59.4766 44.3916 59.4766H59.3398C59.6972 59.4766 60.04 59.6185 60.2927 59.8713C60.5455 60.124 60.6875 60.4668 60.6875 60.8242C60.6875 61.1816 60.5455 61.5244 60.2927 61.7772C60.04 62.0299 59.6972 62.1719 59.3398 62.1719Z" fill="#164ED0"/>
<path d="M35.8101 75.7167C34.9216 75.7167 34.0531 75.4533 33.3143 74.9597C32.5756 74.4661 31.9998 73.7645 31.6598 72.9436C31.3198 72.1228 31.2309 71.2196 31.4042 70.3482C31.5775 69.4768 32.0054 68.6763 32.6336 68.0481C33.2618 67.4198 34.0623 66.992 34.9337 66.8187C35.8051 66.6453 36.7083 66.7343 37.5291 67.0743C38.35 67.4143 39.0516 67.9901 39.5452 68.7288C40.0388 69.4676 40.3022 70.3361 40.3022 71.2245C40.2994 72.4151 39.8252 73.556 38.9834 74.3979C38.1415 75.2397 37.0006 75.7139 35.8101 75.7167ZM35.8101 69.4151C35.4547 69.4151 35.1073 69.5205 34.8118 69.7179C34.5163 69.9154 34.286 70.196 34.15 70.5243C34.014 70.8527 33.9784 71.214 34.0477 71.5625C34.117 71.9111 34.2882 72.2313 34.5395 72.4826C34.7908 72.7339 35.1109 72.905 35.4595 72.9743C35.8081 73.0437 36.1694 73.0081 36.4977 72.8721C36.826 72.7361 37.1067 72.5058 37.3041 72.2103C37.5015 71.9148 37.6069 71.5674 37.6069 71.212C37.6069 70.7354 37.4176 70.2784 37.0806 69.9414C36.7437 69.6044 36.2866 69.4151 35.8101 69.4151Z" fill="#164ED0"/>
<path d="M59.3398 72.565H44.3916C44.0342 72.565 43.6914 72.423 43.4387 72.1703C43.1859 71.9176 43.0439 71.5748 43.0439 71.2173C43.0439 70.8599 43.1859 70.5171 43.4387 70.2644C43.6914 70.0117 44.0342 69.8697 44.3916 69.8697H59.3398C59.6972 69.8697 60.04 70.0117 60.2927 70.2644C60.5455 70.5171 60.6875 70.8599 60.6875 71.2173C60.6875 71.5748 60.5455 71.9176 60.2927 72.1703C60.04 72.423 59.6972 72.565 59.3398 72.565Z" fill="#164ED0"/>
</svg>
